<svg width="78" height="78" viewBox="0 0 78 78" fill="none" xmlns="http://www.w3.org/2000/svg">
<path d="M23.2579 77.4418C21.1353 77.4418 19.3188 76.6866 17.8085 75.1763C16.2956 73.6634 15.5391 71.8457 15.5391 69.723C15.5391 67.6003 16.2956 65.7825 17.8085 64.2697C19.3188 62.7594 21.1353 62.0042 23.2579 62.0042C25.3806 62.0042 27.1971 62.7594 28.7074 64.2697C30.2203 65.7825 30.9767 67.6003 30.9767 69.723C30.9767 71.8457 30.2203 73.6634 28.7074 75.1763C27.1971 76.6866 25.3806 77.4418 23.2579 77.4418ZM61.8519 77.4418C59.7292 77.4418 57.9127 76.6866 56.4024 75.1763C54.8895 73.6634 54.1331 71.8457 54.1331 69.723C54.1331 67.6003 54.8895 65.7825 56.4024 64.2697C57.9127 62.7594 59.7292 62.0042 61.8519 62.0042C63.9745 62.0042 65.7923 62.7594 67.3052 64.2697C68.8155 65.7825 69.5706 67.6003 69.5706 69.723C69.5706 71.8457 68.8155 73.6634 67.3052 75.1763C65.7923 76.6866 63.9745 77.4418 61.8519 77.4418ZM19.9774 15.6915L29.24 34.9884H56.2557L66.8691 15.6915H19.9774ZM23.2579 58.1448C20.3634 58.1448 18.1764 56.8738 16.697 54.3317C15.2175 51.7922 15.1532 49.2682 16.504 46.7596L21.7142 37.3041L7.82035 7.97269H3.86447C2.77098 7.97269 1.87045 7.60219 1.1629 6.86119C0.45534 6.12276 0.101562 5.20679 0.101562 4.1133C0.101562 3.0198 0.472064 2.10256 1.21307 1.36155C1.9515 0.623121 2.86746 0.253906 3.96096 0.253906H10.2325C10.94 0.253906 11.6154 0.446876 12.2587 0.832816C12.9019 1.21875 13.3843 1.7655 13.7059 2.47306L16.311 7.97269H73.2371C74.9738 7.97269 76.1638 8.61593 76.807 9.90239C77.4502 11.1889 77.4181 12.5396 76.7105 13.9548L63.0097 38.6549C62.3021 39.9413 61.3694 40.9383 60.2116 41.6459C59.0538 42.3535 57.7352 42.7072 56.2557 42.7072H27.5033L23.2579 50.426H65.8077C66.9012 50.426 67.8018 50.7952 68.5093 51.5337C69.2169 52.2747 69.5706 53.1919 69.5706 54.2854C69.5706 55.3789 69.2001 56.2949 68.4591 57.0333C67.7207 57.7743 66.8047 58.1448 65.7112 58.1448H23.2579Z" fill="black"/>
</svg>
