<svg width="71" height="57" viewBox="0 0 71 57" fill="none" xmlns="http://www.w3.org/2000/svg">
<path d="M63.7506 14.1668L35.417 31.8753L7.0834 14.1668V7.0834L35.417 24.7919L63.7506 7.0834M63.7506 0H7.0834C3.15211 0 0 3.15211 0 7.0834V49.5838C0 51.4624 0.746284 53.2641 2.07468 54.5925C3.40307 55.9209 5.20476 56.6672 7.0834 56.6672H63.7506C65.6292 56.6672 67.4309 55.9209 68.7593 54.5925C70.0877 53.2641 70.834 51.4624 70.834 49.5838V7.0834C70.834 5.20476 70.0877 3.40307 68.7593 2.07468C67.4309 0.746284 65.6292 0 63.7506 0Z" fill="black"/>
</svg>
