<svg width="90" height="90" viewBox="0 0 90 90" fill="none" xmlns="http://www.w3.org/2000/svg">
<path fill-rule="evenodd" clip-rule="evenodd" d="M45 90C69.8528 90 90 69.8528 90 45C90 20.1472 69.8528 0 45 0C20.1472 0 0 20.1472 0 45C0 69.8528 20.1472 90 45 90ZM32.7672 45.45C32.7672 38.4251 38.4322 32.7588 45.4555 32.7588C52.4788 32.7588 58.1439 38.4251 58.1439 45.45C58.1439 52.4749 52.4788 58.1412 45.4555 58.1412C38.4322 58.1412 32.7672 52.4749 32.7672 45.45ZM37.2064 45.45C37.2064 50.0007 40.9169 53.7009 45.4555 53.7009C49.9942 53.7009 53.7046 50.0007 53.7046 45.45C53.7046 40.8993 50.0052 37.1991 45.4555 37.1991C40.9058 37.1991 37.2064 40.8993 37.2064 45.45ZM58.6629 35.1999C60.2972 35.1999 61.6224 33.8855 61.6224 32.2397C61.6224 30.605 60.2972 29.2795 58.6629 29.2795C57.0285 29.2795 55.7034 30.605 55.7034 32.2397C55.7034 33.8744 57.0175 35.1999 58.6629 35.1999ZM66.0285 24.8724C68.9328 27.7663 69.8383 31.2787 70.0261 35.244C70.258 39.3308 70.258 51.5692 70.0261 55.656C69.8273 59.6213 68.9218 63.1337 66.0285 66.0276C63.1353 68.9325 59.6236 69.8383 55.6592 70.026C51.5733 70.258 39.3267 70.258 35.2408 70.026C31.2764 69.8272 27.7758 68.9215 24.8715 66.0276C21.9672 63.1337 21.0617 59.6213 20.8739 55.656C20.642 51.5692 20.642 39.3198 20.8739 35.233C21.0727 31.2677 21.9672 27.7553 24.8715 24.8614C27.7758 21.9675 31.2874 21.0617 35.2408 20.874C39.3267 20.642 51.5733 20.642 55.6592 20.874C59.6236 21.0728 63.1353 21.9785 66.0285 24.8724ZM60.0433 64.7463C62.2187 63.8737 63.8862 62.2059 64.7476 60.041C65.8557 57.2557 65.7941 51.1631 65.7541 47.2136C65.7474 46.5585 65.7414 45.9623 65.7414 45.45C65.7414 44.9376 65.7474 44.3415 65.7541 43.6866C65.7941 39.7392 65.8557 33.6537 64.7476 30.859C63.8752 28.6831 62.2077 27.0152 60.0433 26.1537C57.2498 25.0512 51.129 25.11 47.1816 25.1478C46.5412 25.154 45.958 25.1596 45.4555 25.1596C44.9432 25.1596 44.3473 25.1535 43.6925 25.1469C39.7461 25.1069 33.6619 25.0453 30.8678 26.1537C28.6923 27.0263 27.0248 28.6941 26.1635 30.859C25.0613 33.6531 25.12 39.7752 25.1579 43.7236C25.164 44.3641 25.1696 44.9474 25.1696 45.45C25.1696 45.9624 25.1636 46.5585 25.157 47.2134C25.117 51.1607 25.0553 57.2463 26.1635 60.041C27.0359 62.2169 28.7034 63.8848 30.8678 64.7463C33.6612 65.8488 39.782 65.79 43.7295 65.7522C44.3698 65.746 44.953 65.7404 45.4555 65.7404C45.9678 65.7404 46.5637 65.7465 47.2185 65.7531C51.165 65.7931 57.2492 65.8547 60.0433 64.7463Z" fill="#F5F5F5"/>
</svg>
