<svg width="77" height="87" viewBox="0 0 77 87" fill="none" xmlns="http://www.w3.org/2000/svg">
<path d="M14.3804 86.7338C11.7472 86.7338 9.49387 85.797 7.62032 83.9235C5.74357 82.0467 4.8052 79.7917 4.8052 77.1586V14.9195C3.44871 14.9195 2.31085 14.4615 1.39163 13.5455C0.475595 12.6262 0.0175781 11.4884 0.0175781 10.1319C0.0175781 8.77539 0.475595 7.63753 1.39163 6.71831C2.31085 5.80228 3.44871 5.34426 4.8052 5.34426H23.9557C23.9557 3.98777 24.4153 2.84991 25.3345 1.93069C26.2505 1.01466 27.3868 0.556641 28.7433 0.556641H47.8938C49.2503 0.556641 50.3881 1.01466 51.3074 1.93069C52.2234 2.84991 52.6814 3.98777 52.6814 5.34426H71.8319C73.1884 5.34426 74.3246 5.80228 75.2407 6.71831C76.1599 7.63753 76.6195 8.77539 76.6195 10.1319C76.6195 11.4884 76.1599 12.6262 75.2407 13.5455C74.3246 14.4615 73.1884 14.9195 71.8319 14.9195V77.1586C71.8319 79.7917 70.8951 82.0467 69.0216 83.9235C67.1448 85.797 64.8898 86.7338 62.2566 86.7338H14.3804ZM14.3804 14.9195V77.1586H62.2566V14.9195H14.3804ZM23.9557 62.7957C23.9557 64.1522 24.4153 65.2884 25.3345 66.2045C26.2505 67.1237 27.3868 67.5833 28.7433 67.5833C30.0998 67.5833 31.2377 67.1237 32.1569 66.2045C33.0729 65.2884 33.5309 64.1522 33.5309 62.7957V29.2824C33.5309 27.9259 33.0729 26.788 32.1569 25.8688C31.2377 24.9528 30.0998 24.4947 28.7433 24.4947C27.3868 24.4947 26.2505 24.9528 25.3345 25.8688C24.4153 26.788 23.9557 27.9259 23.9557 29.2824V62.7957ZM43.1062 62.7957C43.1062 64.1522 43.5658 65.2884 44.485 66.2045C45.401 67.1237 46.5373 67.5833 47.8938 67.5833C49.2503 67.5833 50.3881 67.1237 51.3074 66.2045C52.2234 65.2884 52.6814 64.1522 52.6814 62.7957V29.2824C52.6814 27.9259 52.2234 26.788 51.3074 25.8688C50.3881 24.9528 49.2503 24.4947 47.8938 24.4947C46.5373 24.4947 45.401 24.9528 44.485 25.8688C43.5658 26.788 43.1062 27.9259 43.1062 29.2824V62.7957Z" fill="black"/>
</svg>
