<svg width="23" height="23" viewBox="0 0 23 23" fill="none" xmlns="http://www.w3.org/2000/svg">
<path d="M20.4234 22.2217L13.2303 15.0286C12.588 15.5424 11.8494 15.9491 11.0145 16.2488C10.1796 16.5485 9.29116 16.6984 8.3492 16.6984C6.01571 16.6984 4.04101 15.8905 2.42512 14.2746C0.808374 12.6578 0 10.6827 0 8.3492C0 6.01571 0.808374 4.04059 2.42512 2.42384C4.04101 0.807946 6.01571 0 8.3492 0C10.6827 0 12.6578 0.807946 14.2746 2.42384C15.8905 4.04059 16.6984 6.01571 16.6984 8.3492C16.6984 9.29116 16.5485 10.1796 16.2488 11.0145C15.9491 11.8494 15.5424 12.588 15.0286 13.2303L22.2538 20.4555C22.4893 20.691 22.6071 20.98 22.6071 21.3226C22.6071 21.6651 22.4786 21.9648 22.2217 22.2217C21.9862 22.4572 21.6865 22.575 21.3226 22.575C20.9586 22.575 20.6589 22.4572 20.4234 22.2217ZM8.3492 14.1294C9.95482 14.1294 11.3198 13.5677 12.4442 12.4442C13.5677 11.3198 14.1294 9.95482 14.1294 8.3492C14.1294 6.74359 13.5677 5.3786 12.4442 4.25424C11.3198 3.13074 9.95482 2.56898 8.3492 2.56898C6.74358 2.56898 5.3786 3.13074 4.25424 4.25424C3.13074 5.3786 2.56898 6.74359 2.56898 8.3492C2.56898 9.95482 3.13074 11.3198 4.25424 12.4442C5.3786 13.5677 6.74358 14.1294 8.3492 14.1294Z" fill="black"/>
</svg>
