<svg width="70" height="70" viewBox="0 0 70 70" fill="none" xmlns="http://www.w3.org/2000/svg">
<path fill-rule="evenodd" clip-rule="evenodd" d="M8.24868 2.23193C9.01417 1.46759 9.93335 0.874663 10.9453 0.492438C11.9573 0.110212 13.039 -0.0525817 14.1186 0.0148449C15.1982 0.0822715 16.2512 0.378378 17.2078 0.883543C18.1644 1.38871 19.0026 2.0914 19.6671 2.94504L27.5199 13.0335C28.9593 14.8841 29.4668 17.2946 28.898 19.5696L26.505 29.1506C26.3813 29.6468 26.3879 30.1666 26.5244 30.6595C26.6608 31.1524 26.9224 31.6016 27.2837 31.9636L38.0327 42.7127C38.3951 43.0747 38.8451 43.3367 39.3389 43.4732C39.8326 43.6097 40.3533 43.6159 40.8502 43.4914L50.4267 41.0984C51.5494 40.8177 52.7212 40.7959 53.8535 41.0346C54.9858 41.2733 56.049 41.7664 56.9628 42.4764L67.0512 50.325C70.678 53.1468 71.0105 58.506 67.7643 61.7478L63.2407 66.2714C60.0033 69.5088 55.1647 70.9307 50.6542 69.3426C39.1098 65.2806 28.628 58.6715 19.9864 50.0056C11.3211 41.3653 4.71207 30.885 0.64954 19.3421C-0.93416 14.836 0.48767 9.99297 3.72507 6.75556L8.24868 2.23193Z" fill="#F5F5F5"/>
</svg>
