<svg width="68" height="68" viewBox="0 0 68 68" fill="none" xmlns="http://www.w3.org/2000/svg">
<path d="M34.1824 0.661133C38.6057 0.661133 42.8478 2.41828 45.9755 5.54603C49.1033 8.67378 50.8604 12.9159 50.8604 17.3392C50.8604 21.7625 49.1033 26.0047 45.9755 29.1324C42.8478 32.2602 38.6057 34.0173 34.1824 34.0173C29.759 34.0173 25.5169 32.2602 22.3892 29.1324C19.2614 26.0047 17.5043 21.7625 17.5043 17.3392C17.5043 12.9159 19.2614 8.67378 22.3892 5.54603C25.5169 2.41828 29.759 0.661133 34.1824 0.661133ZM34.1824 42.3564C52.6116 42.3564 67.5385 49.8198 67.5385 59.0345V67.3735H0.826172V59.0345C0.826172 49.8198 15.7531 42.3564 34.1824 42.3564Z" fill="black"/>
</svg>
