<svg width="90" height="90" viewBox="0 0 90 90" fill="none" xmlns="http://www.w3.org/2000/svg">
<path d="M45 0C69.8535 0 90 20.1466 90 45.0001C90 69.8537 69.8535 90.0003 45 90.0003C37.0475 90.0131 29.235 87.9085 22.365 83.9028L0.0180633 90.0003L6.10206 67.6442C2.09298 60.7721 -0.0132227 52.9562 6.24611e-05 45.0001C6.24611e-05 20.1466 20.1466 0 45 0ZM29.664 23.8501L28.764 23.8861C28.1814 23.9216 27.612 24.0746 27.09 24.3361C26.6019 24.6125 26.1563 24.9581 25.767 25.3621C25.227 25.8706 24.921 26.3116 24.5925 26.7391C22.9281 28.9031 22.0319 31.56 22.0455 34.2901C22.0545 36.4951 22.6305 38.6416 23.5305 40.6486C25.371 44.7076 28.3995 49.0051 32.3955 52.9877C33.3585 53.9462 34.3035 54.9092 35.3205 55.8047C40.2858 60.1763 46.2027 63.3289 52.6005 65.0117L55.1565 65.4032C55.989 65.4482 56.8215 65.3852 57.6585 65.3447C58.9691 65.277 60.2488 64.9222 61.407 64.3052C61.9963 64.0016 62.5714 63.6713 63.1305 63.3152C63.1305 63.3152 63.324 63.1892 63.693 62.9102C64.3005 62.4602 64.674 62.1407 65.178 61.6142C65.5515 61.2272 65.8755 60.7727 66.123 60.2552C66.474 59.5217 66.825 58.1222 66.969 56.9567C67.077 56.0657 67.0455 55.5797 67.032 55.2782C67.014 54.7967 66.6135 54.2972 66.177 54.0857L63.558 52.9112C63.558 52.9112 59.643 51.2057 57.249 50.1166C56.9985 50.0073 56.7301 49.9447 56.457 49.9321C56.1491 49.9005 55.838 49.9352 55.5447 50.0337C55.2513 50.1323 54.9824 50.2925 54.756 50.5036C54.7335 50.4946 54.432 50.7512 51.1785 54.6932C50.9918 54.9441 50.7346 55.1337 50.4396 55.2379C50.1447 55.3421 49.8254 55.3561 49.5225 55.2782C49.2294 55.1996 48.9422 55.1003 48.663 54.9812C48.105 54.7472 47.9115 54.6572 47.529 54.4952C44.9463 53.3681 42.5551 51.8453 40.4415 49.9816C39.8745 49.4866 39.348 48.9466 38.808 48.4246C37.0377 46.7292 35.4948 44.8112 34.218 42.7186L33.9525 42.2911C33.7618 42.0039 33.6077 41.694 33.4935 41.3686C33.3225 40.7071 33.768 40.1761 33.768 40.1761C33.768 40.1761 34.8615 38.9791 35.37 38.3311C35.865 37.7011 36.2835 37.0891 36.5535 36.6526C37.0845 35.7976 37.251 34.9201 36.972 34.2406C35.712 31.1626 34.407 28.0981 33.066 25.0561C32.8005 24.4531 32.013 24.0211 31.2975 23.9356C31.0545 23.9086 30.8115 23.8816 30.5685 23.8636C29.9642 23.8335 29.3586 23.8396 28.755 23.8816L29.6595 23.8456L29.664 23.8501Z" fill="#F5F5F5"/>
</svg>
